<?xml version="1.0"?>
<mxfile host="www.draw.io" modified="2020-07-27T08:00:56.610Z" agent="5.0 (X11; Linux x86_64) AppleWebKit/537.36 (KHTML, like Gecko) Chrome/84.0.4147.89 Safari/537.36" etag="NPjdYipcIsHmtgnNrRis" version="13.5.3" pages="7">
  <diagram name="1 need backtracking" id="fSOR8C3qeARvX5ittgfD">
    <mxGraphModel dx="2" dy="1" grid="1" gridSize="10" guides="1" tooltips="1" connect="1" arrows="1" fold="1" page="1" pageScale="1" pageWidth="1654" pageHeight="1169" math="0" shadow="0">
      <root>
        <mxCell id="TswwbI3Oe9on1FsQc5qT-0"/>
        <mxCell id="TswwbI3Oe9on1FsQc5qT-1" parent="TswwbI3Oe9on1FsQc5qT-0"/>
        <mxCell id="TswwbI3Oe9on1FsQc5qT-11" value="" style="endArrow=none;html=1;strokeWidth=9;fillColor=#76608a;strokeColor=#E6E6E6;" parent="TswwbI3Oe9on1FsQc5qT-1" edge="1">
          <mxGeometry width="50" height="50" relative="1" as="geometry">
            <mxPoint x="480" y="1050" as="sourcePoint"/>
            <mxPoint x="480" y="470" as="targetPoint"/>
          </mxGeometry>
        </mxCell>
        <mxCell id="TswwbI3Oe9on1FsQc5qT-12" value="" style="endArrow=none;html=1;strokeWidth=9;fillColor=#76608a;strokeColor=#E6E6E6;curved=1;" parent="TswwbI3Oe9on1FsQc5qT-1" edge="1">
          <mxGeometry width="50" height="50" relative="1" as="geometry">
            <mxPoint x="480" y="1050" as="sourcePoint"/>
            <mxPoint x="560" y="920" as="targetPoint"/>
            <Array as="points">
              <mxPoint x="480" y="1020"/>
              <mxPoint x="560" y="980"/>
            </Array>
          </mxGeometry>
        </mxCell>
        <mxCell id="TswwbI3Oe9on1FsQc5qT-13" value="" style="curved=1;endArrow=none;html=1;strokeWidth=9;fillColor=#76608a;endFill=0;strokeColor=#E6E6E6;" parent="TswwbI3Oe9on1FsQc5qT-1" edge="1">
          <mxGeometry width="50" height="50" relative="1" as="geometry">
            <mxPoint x="560" y="920" as="sourcePoint"/>
            <mxPoint x="640" y="720" as="targetPoint"/>
            <Array as="points">
              <mxPoint x="560" y="860"/>
              <mxPoint x="640" y="780"/>
            </Array>
          </mxGeometry>
        </mxCell>
        <mxCell id="TswwbI3Oe9on1FsQc5qT-14" value="" style="curved=1;endArrow=none;html=1;strokeWidth=9;fillColor=#76608a;endFill=0;strokeColor=#E6E6E6;" parent="TswwbI3Oe9on1FsQc5qT-1" edge="1">
          <mxGeometry width="50" height="50" relative="1" as="geometry">
            <mxPoint x="640" y="720" as="sourcePoint"/>
            <mxPoint x="560" y="640" as="targetPoint"/>
            <Array as="points">
              <mxPoint x="640" y="640"/>
            </Array>
          </mxGeometry>
        </mxCell>
        <mxCell id="TswwbI3Oe9on1FsQc5qT-15" value="" style="endArrow=none;html=1;strokeWidth=9;fillColor=#76608a;strokeColor=#E6E6E6;" parent="TswwbI3Oe9on1FsQc5qT-1" edge="1">
          <mxGeometry width="50" height="50" relative="1" as="geometry">
            <mxPoint x="140" y="640" as="sourcePoint"/>
            <mxPoint x="560" y="640" as="targetPoint"/>
          </mxGeometry>
        </mxCell>
        <mxCell id="gV2PpxswagB29YGR3lcj-0" value="&lt;b&gt;Legend&lt;/b&gt;" style="text;html=1;strokeColor=none;align=center;verticalAlign=middle;whiteSpace=wrap;rounded=0;fillColor=#a8ca40;fontColor=#FFFFFF;" parent="TswwbI3Oe9on1FsQc5qT-1" vertex="1">
          <mxGeometry x="140.21000000000004" y="925" width="149.79" height="20" as="geometry"/>
        </mxCell>
        <mxCell id="gV2PpxswagB29YGR3lcj-1" value="Best candidate" style="text;html=1;strokeColor=none;fillColor=none;align=left;verticalAlign=middle;whiteSpace=wrap;rounded=0;" parent="TswwbI3Oe9on1FsQc5qT-1" vertex="1">
          <mxGeometry x="190.6300000000001" y="980" width="89.37" height="20" as="geometry"/>
        </mxCell>
        <mxCell id="gV2PpxswagB29YGR3lcj-2" value="" style="curved=1;html=1;strokeColor=#B85450;fontColor=#000000;fontSize=11;rounded=1;strokeWidth=5;fillColor=#76608a;endArrow=none;" parent="TswwbI3Oe9on1FsQc5qT-1" target="gV2PpxswagB29YGR3lcj-9" edge="1">
          <mxGeometry width="50" height="50" relative="1" as="geometry">
            <mxPoint x="140" y="1016" as="sourcePoint"/>
            <mxPoint x="180" y="1016" as="targetPoint"/>
            <Array as="points"/>
          </mxGeometry>
        </mxCell>
        <mxCell id="gV2PpxswagB29YGR3lcj-3" value="&lt;span style=&quot;text-align: right&quot;&gt;Worse candidate&lt;/span&gt;" style="text;html=1;strokeColor=none;fillColor=none;align=left;verticalAlign=middle;whiteSpace=wrap;rounded=0;" parent="TswwbI3Oe9on1FsQc5qT-1" vertex="1">
          <mxGeometry x="190.63" y="1006" width="99.37" height="20" as="geometry"/>
        </mxCell>
        <mxCell id="gV2PpxswagB29YGR3lcj-4" value="" style="endArrow=none;html=1;strokeWidth=5;fillColor=#76608a;strokeColor=#82B366;" parent="TswwbI3Oe9on1FsQc5qT-1" source="gV2PpxswagB29YGR3lcj-7" edge="1">
          <mxGeometry width="50" height="50" relative="1" as="geometry">
            <mxPoint x="180" y="990" as="sourcePoint"/>
            <mxPoint x="140" y="990" as="targetPoint"/>
          </mxGeometry>
        </mxCell>
        <mxCell id="gV2PpxswagB29YGR3lcj-5" value="" style="curved=1;html=1;strokeColor=#D79B00;fontColor=#000000;fontSize=11;rounded=0;strokeWidth=5;" parent="TswwbI3Oe9on1FsQc5qT-1" edge="1">
          <mxGeometry width="50" height="50" relative="1" as="geometry">
            <mxPoint x="140" y="1040" as="sourcePoint"/>
            <mxPoint x="180" y="1040" as="targetPoint"/>
            <Array as="points"/>
          </mxGeometry>
        </mxCell>
        <mxCell id="gV2PpxswagB29YGR3lcj-6" value="&lt;span style=&quot;text-align: right&quot;&gt;Current route&lt;/span&gt;" style="text;html=1;strokeColor=none;fillColor=none;align=left;verticalAlign=middle;whiteSpace=wrap;rounded=0;" parent="TswwbI3Oe9on1FsQc5qT-1" vertex="1">
          <mxGeometry x="190.63" y="1030" width="99.37" height="20" as="geometry"/>
        </mxCell>
        <mxCell id="gV2PpxswagB29YGR3lcj-7" value="" style="ellipse;whiteSpace=wrap;html=1;aspect=fixed;fillColor=#d5e8d4;strokeColor=#82b366;rotation=0;" parent="TswwbI3Oe9on1FsQc5qT-1" vertex="1">
          <mxGeometry x="160" y="980" width="20.42" height="20.42" as="geometry"/>
        </mxCell>
        <mxCell id="gV2PpxswagB29YGR3lcj-8" value="" style="endArrow=none;html=1;strokeWidth=5;fillColor=#76608a;strokeColor=#82B366;" parent="TswwbI3Oe9on1FsQc5qT-1" target="gV2PpxswagB29YGR3lcj-7" edge="1">
          <mxGeometry width="50" height="50" relative="1" as="geometry">
            <mxPoint x="180" y="990" as="sourcePoint"/>
            <mxPoint x="140" y="990" as="targetPoint"/>
          </mxGeometry>
        </mxCell>
        <mxCell id="gV2PpxswagB29YGR3lcj-9" value="" style="ellipse;whiteSpace=wrap;html=1;aspect=fixed;fillColor=#f8cecc;strokeColor=#b85450;rotation=0;" parent="TswwbI3Oe9on1FsQc5qT-1" vertex="1">
          <mxGeometry x="160" y="1005.5799999999999" width="20.42" height="20.42" as="geometry"/>
        </mxCell>
        <mxCell id="gV2PpxswagB29YGR3lcj-14" value="" style="whiteSpace=wrap;html=1;rounded=0;shadow=0;strokeWidth=1;fontSize=24;align=right;strokeColor=#3A5431;fillColor=#E6E6E6;" parent="TswwbI3Oe9on1FsQc5qT-1" vertex="1">
          <mxGeometry x="160" y="955" width="20" height="20" as="geometry"/>
        </mxCell>
        <mxCell id="TswwbI3Oe9on1FsQc5qT-9" value="" style="ellipse;whiteSpace=wrap;html=1;aspect=fixed;fillColor=none;" parent="TswwbI3Oe9on1FsQc5qT-1" vertex="1">
          <mxGeometry x="319.8" y="514.79" width="140.41" height="140.41" as="geometry"/>
        </mxCell>
        <mxCell id="TswwbI3Oe9on1FsQc5qT-3" value="" style="ellipse;whiteSpace=wrap;html=1;aspect=fixed;fillColor=none;" parent="TswwbI3Oe9on1FsQc5qT-1" vertex="1">
          <mxGeometry x="439.79" y="869.59" width="140.41" height="140.41" as="geometry"/>
        </mxCell>
        <mxCell id="TswwbI3Oe9on1FsQc5qT-4" value="" style="ellipse;whiteSpace=wrap;html=1;aspect=fixed;fillColor=none;" parent="TswwbI3Oe9on1FsQc5qT-1" vertex="1">
          <mxGeometry x="449.89000000000004" y="749.79" width="140.41" height="140.41" as="geometry"/>
        </mxCell>
        <mxCell id="TswwbI3Oe9on1FsQc5qT-5" value="" style="ellipse;whiteSpace=wrap;html=1;aspect=fixed;fillColor=none;" parent="TswwbI3Oe9on1FsQc5qT-1" vertex="1">
          <mxGeometry x="459.79" y="629.79" width="140.41" height="140.41" as="geometry"/>
        </mxCell>
        <mxCell id="TswwbI3Oe9on1FsQc5qT-6" value="" style="ellipse;whiteSpace=wrap;html=1;aspect=fixed;fillColor=none;" parent="TswwbI3Oe9on1FsQc5qT-1" vertex="1">
          <mxGeometry x="439.79" y="509.58000000000004" width="140.41" height="140.41" as="geometry"/>
        </mxCell>
        <mxCell id="TswwbI3Oe9on1FsQc5qT-10" value="" style="ellipse;whiteSpace=wrap;html=1;aspect=fixed;fillColor=none;" parent="TswwbI3Oe9on1FsQc5qT-1" vertex="1">
          <mxGeometry x="179.8" y="549.79" width="140.41" height="140.41" as="geometry"/>
        </mxCell>
        <mxCell id="TswwbI3Oe9on1FsQc5qT-16" style="edgeStyle=none;orthogonalLoop=1;jettySize=auto;html=1;endArrow=none;strokeWidth=5;fillColor=#76608a;strokeColor=#B85450;" parent="TswwbI3Oe9on1FsQc5qT-1" source="TswwbI3Oe9on1FsQc5qT-17" target="TswwbI3Oe9on1FsQc5qT-30" edge="1">
          <mxGeometry relative="1" as="geometry"/>
        </mxCell>
        <mxCell id="TswwbI3Oe9on1FsQc5qT-17" value="" style="whiteSpace=wrap;html=1;rounded=0;shadow=0;strokeWidth=1;fontSize=24;align=right;strokeColor=#3A5431;fillColor=#E6E6E6;" parent="TswwbI3Oe9on1FsQc5qT-1" vertex="1">
          <mxGeometry x="500" y="930" width="20" height="20" as="geometry"/>
        </mxCell>
        <mxCell id="TswwbI3Oe9on1FsQc5qT-18" style="edgeStyle=none;orthogonalLoop=1;jettySize=auto;html=1;endArrow=none;strokeColor=#B85450;strokeWidth=5;fillColor=#76608a;" parent="TswwbI3Oe9on1FsQc5qT-1" source="TswwbI3Oe9on1FsQc5qT-19" target="TswwbI3Oe9on1FsQc5qT-42" edge="1">
          <mxGeometry relative="1" as="geometry"/>
        </mxCell>
        <mxCell id="TswwbI3Oe9on1FsQc5qT-19" value="" style="whiteSpace=wrap;html=1;rounded=0;shadow=0;strokeWidth=1;fontSize=24;align=right;strokeColor=#3A5431;fillColor=#E6E6E6;" parent="TswwbI3Oe9on1FsQc5qT-1" vertex="1">
          <mxGeometry x="510" y="810" width="20" height="20" as="geometry"/>
        </mxCell>
        <mxCell id="TswwbI3Oe9on1FsQc5qT-20" style="edgeStyle=none;orthogonalLoop=1;jettySize=auto;html=1;endArrow=none;strokeColor=#B85450;strokeWidth=5;fillColor=#76608a;" parent="TswwbI3Oe9on1FsQc5qT-1" source="TswwbI3Oe9on1FsQc5qT-21" target="TswwbI3Oe9on1FsQc5qT-33" edge="1">
          <mxGeometry relative="1" as="geometry"/>
        </mxCell>
        <mxCell id="TswwbI3Oe9on1FsQc5qT-21" value="" style="whiteSpace=wrap;html=1;rounded=0;shadow=0;strokeWidth=1;fontSize=24;align=right;strokeColor=#3A5431;fillColor=#E6E6E6;" parent="TswwbI3Oe9on1FsQc5qT-1" vertex="1">
          <mxGeometry x="520" y="690" width="20" height="20" as="geometry"/>
        </mxCell>
        <mxCell id="TswwbI3Oe9on1FsQc5qT-22" style="edgeStyle=none;orthogonalLoop=1;jettySize=auto;html=1;endArrow=none;strokeColor=#B85450;strokeWidth=5;fillColor=#76608a;" parent="TswwbI3Oe9on1FsQc5qT-1" source="TswwbI3Oe9on1FsQc5qT-23" target="TswwbI3Oe9on1FsQc5qT-43" edge="1">
          <mxGeometry relative="1" as="geometry"/>
        </mxCell>
        <mxCell id="TswwbI3Oe9on1FsQc5qT-23" value="" style="whiteSpace=wrap;html=1;rounded=0;shadow=0;strokeWidth=1;fontSize=24;align=right;strokeColor=#3A5431;fillColor=#E6E6E6;" parent="TswwbI3Oe9on1FsQc5qT-1" vertex="1">
          <mxGeometry x="500" y="570" width="20" height="20" as="geometry"/>
        </mxCell>
        <mxCell id="TswwbI3Oe9on1FsQc5qT-26" style="edgeStyle=none;orthogonalLoop=1;jettySize=auto;html=1;endArrow=none;strokeColor=#82B366;strokeWidth=5;fillColor=#76608a;" parent="TswwbI3Oe9on1FsQc5qT-1" source="TswwbI3Oe9on1FsQc5qT-27" target="TswwbI3Oe9on1FsQc5qT-40" edge="1">
          <mxGeometry relative="1" as="geometry"/>
        </mxCell>
        <mxCell id="TswwbI3Oe9on1FsQc5qT-27" value="" style="whiteSpace=wrap;html=1;rounded=0;shadow=0;strokeWidth=1;fontSize=24;align=right;strokeColor=#3A5431;fillColor=#E6E6E6;" parent="TswwbI3Oe9on1FsQc5qT-1" vertex="1">
          <mxGeometry x="380" y="575" width="20" height="20" as="geometry"/>
        </mxCell>
        <mxCell id="TswwbI3Oe9on1FsQc5qT-28" value="" style="whiteSpace=wrap;html=1;rounded=0;shadow=0;strokeWidth=1;fontSize=24;align=right;strokeColor=#3A5431;fillColor=#E6E6E6;" parent="TswwbI3Oe9on1FsQc5qT-1" vertex="1">
          <mxGeometry x="240" y="610" width="20" height="20" as="geometry"/>
        </mxCell>
        <mxCell id="TswwbI3Oe9on1FsQc5qT-30" value="" style="ellipse;whiteSpace=wrap;html=1;aspect=fixed;fillColor=#f8cecc;strokeColor=#b85450;rotation=0;" parent="TswwbI3Oe9on1FsQc5qT-1" vertex="1">
          <mxGeometry x="549.6800000000001" y="929.58" width="20.42" height="20.42" as="geometry"/>
        </mxCell>
        <mxCell id="TswwbI3Oe9on1FsQc5qT-31" style="edgeStyle=none;orthogonalLoop=1;jettySize=auto;html=1;endArrow=none;strokeColor=#82B366;strokeWidth=5;fillColor=#76608a;" parent="TswwbI3Oe9on1FsQc5qT-1" source="TswwbI3Oe9on1FsQc5qT-32" target="TswwbI3Oe9on1FsQc5qT-19" edge="1">
          <mxGeometry relative="1" as="geometry"/>
        </mxCell>
        <mxCell id="TswwbI3Oe9on1FsQc5qT-33" value="" style="ellipse;whiteSpace=wrap;html=1;aspect=fixed;fillColor=#f8cecc;strokeColor=#b85450;rotation=0;" parent="TswwbI3Oe9on1FsQc5qT-1" vertex="1">
          <mxGeometry x="519.5799999999999" y="629.57" width="20.42" height="20.42" as="geometry"/>
        </mxCell>
        <mxCell id="TswwbI3Oe9on1FsQc5qT-34" style="edgeStyle=none;orthogonalLoop=1;jettySize=auto;html=1;endArrow=none;strokeColor=#82B366;strokeWidth=5;fillColor=#76608a;" parent="TswwbI3Oe9on1FsQc5qT-1" source="TswwbI3Oe9on1FsQc5qT-35" target="TswwbI3Oe9on1FsQc5qT-21" edge="1">
          <mxGeometry relative="1" as="geometry"/>
        </mxCell>
        <mxCell id="TswwbI3Oe9on1FsQc5qT-36" style="edgeStyle=none;orthogonalLoop=1;jettySize=auto;html=1;endArrow=none;strokeColor=#82B366;strokeWidth=5;fillColor=#76608a;" parent="TswwbI3Oe9on1FsQc5qT-1" source="TswwbI3Oe9on1FsQc5qT-37" target="TswwbI3Oe9on1FsQc5qT-23" edge="1">
          <mxGeometry relative="1" as="geometry"/>
        </mxCell>
        <mxCell id="u0fT8MRsqqMhG_DH3ErL-0" style="edgeStyle=none;orthogonalLoop=1;jettySize=auto;html=1;endArrow=classic;strokeColor=#D79B00;strokeWidth=5;rounded=0;" parent="TswwbI3Oe9on1FsQc5qT-1" source="TswwbI3Oe9on1FsQc5qT-37" target="TswwbI3Oe9on1FsQc5qT-40" edge="1">
          <mxGeometry relative="1" as="geometry"/>
        </mxCell>
        <mxCell id="TswwbI3Oe9on1FsQc5qT-37" value="" style="ellipse;whiteSpace=wrap;html=1;aspect=fixed;fillColor=#d5e8d4;strokeColor=#82b366;rotation=0;" parent="TswwbI3Oe9on1FsQc5qT-1" vertex="1">
          <mxGeometry x="469.36999999999995" y="569.58" width="20.42" height="20.42" as="geometry"/>
        </mxCell>
        <mxCell id="TswwbI3Oe9on1FsQc5qT-40" value="" style="ellipse;whiteSpace=wrap;html=1;aspect=fixed;fillColor=#d5e8d4;strokeColor=#82b366;rotation=0;" parent="TswwbI3Oe9on1FsQc5qT-1" vertex="1">
          <mxGeometry x="379.99999999999994" y="629.58" width="20.42" height="20.42" as="geometry"/>
        </mxCell>
        <mxCell id="TswwbI3Oe9on1FsQc5qT-41" value="" style="ellipse;whiteSpace=wrap;html=1;aspect=fixed;fillColor=#d5e8d4;strokeColor=#82b366;rotation=0;" parent="TswwbI3Oe9on1FsQc5qT-1" vertex="1">
          <mxGeometry x="239.57999999999993" y="630" width="20.42" height="20.42" as="geometry"/>
        </mxCell>
        <mxCell id="TswwbI3Oe9on1FsQc5qT-42" value="" style="ellipse;whiteSpace=wrap;html=1;aspect=fixed;fillColor=#f8cecc;strokeColor=#b85450;rotation=0;" parent="TswwbI3Oe9on1FsQc5qT-1" vertex="1">
          <mxGeometry x="567" y="838" width="20.42" height="20.42" as="geometry"/>
        </mxCell>
        <mxCell id="TswwbI3Oe9on1FsQc5qT-43" value="" style="ellipse;whiteSpace=wrap;html=1;aspect=fixed;fillColor=#f8cecc;strokeColor=#b85450;rotation=0;" parent="TswwbI3Oe9on1FsQc5qT-1" vertex="1">
          <mxGeometry x="499.26" y="629.79" width="20.42" height="20.42" as="geometry"/>
        </mxCell>
        <mxCell id="TswwbI3Oe9on1FsQc5qT-44" value="" style="endArrow=none;html=1;strokeWidth=5;fillColor=#76608a;strokeColor=#82B366;" parent="TswwbI3Oe9on1FsQc5qT-1" source="TswwbI3Oe9on1FsQc5qT-29" target="TswwbI3Oe9on1FsQc5qT-17" edge="1">
          <mxGeometry width="50" height="50" relative="1" as="geometry">
            <mxPoint x="680" y="920" as="sourcePoint"/>
            <mxPoint x="730" y="870" as="targetPoint"/>
          </mxGeometry>
        </mxCell>
        <mxCell id="G9ScFWYfnyMmBa8Kk9af-0" value="" style="endArrow=classic;html=1;strokeWidth=5;strokeColor=#D79B00;rounded=0;exitX=0.469;exitY=0.51;exitDx=0;exitDy=0;exitPerimeter=0;" parent="TswwbI3Oe9on1FsQc5qT-1" source="TswwbI3Oe9on1FsQc5qT-29" target="TswwbI3Oe9on1FsQc5qT-32" edge="1">
          <mxGeometry width="50" height="50" relative="1" as="geometry">
            <mxPoint x="480" y="1050" as="sourcePoint"/>
            <mxPoint x="870.0000000000002" y="520" as="targetPoint"/>
          </mxGeometry>
        </mxCell>
        <mxCell id="TswwbI3Oe9on1FsQc5qT-29" value="" style="ellipse;whiteSpace=wrap;html=1;aspect=fixed;fillColor=#d5e8d4;strokeColor=#82b366;rotation=0;" parent="TswwbI3Oe9on1FsQc5qT-1" vertex="1">
          <mxGeometry x="470" y="929.58" width="20.42" height="20.42" as="geometry"/>
        </mxCell>
        <mxCell id="kY1D6CGFt8wl4ZCouJIl-0" style="edgeStyle=none;rounded=0;orthogonalLoop=1;jettySize=auto;html=1;strokeColor=#D79B00;strokeWidth=5;" parent="TswwbI3Oe9on1FsQc5qT-1" source="TswwbI3Oe9on1FsQc5qT-32" target="TswwbI3Oe9on1FsQc5qT-35" edge="1">
          <mxGeometry relative="1" as="geometry"/>
        </mxCell>
        <mxCell id="TswwbI3Oe9on1FsQc5qT-32" value="" style="ellipse;whiteSpace=wrap;html=1;aspect=fixed;fillColor=#d5e8d4;strokeColor=#82b366;rotation=0;" parent="TswwbI3Oe9on1FsQc5qT-1" vertex="1">
          <mxGeometry x="469.58" y="810" width="20.42" height="20.42" as="geometry"/>
        </mxCell>
        <mxCell id="kY1D6CGFt8wl4ZCouJIl-1" style="edgeStyle=none;rounded=0;orthogonalLoop=1;jettySize=auto;html=1;strokeColor=#D79B00;strokeWidth=5;" parent="TswwbI3Oe9on1FsQc5qT-1" source="TswwbI3Oe9on1FsQc5qT-35" target="TswwbI3Oe9on1FsQc5qT-37" edge="1">
          <mxGeometry relative="1" as="geometry"/>
        </mxCell>
        <mxCell id="TswwbI3Oe9on1FsQc5qT-35" value="" style="ellipse;whiteSpace=wrap;html=1;aspect=fixed;fillColor=#d5e8d4;strokeColor=#82b366;rotation=0;" parent="TswwbI3Oe9on1FsQc5qT-1" vertex="1">
          <mxGeometry x="470.41999999999996" y="689.58" width="20.42" height="20.42" as="geometry"/>
        </mxCell>
        <mxCell id="VviTeM2ibpvHN3L1Oc7k-2" value="" style="endArrow=none;html=1;strokeWidth=2;fontColor=#82B366;strokeColor=#FF0000;exitX=0.856;exitY=0.514;exitDx=0;exitDy=0;exitPerimeter=0;" parent="TswwbI3Oe9on1FsQc5qT-1" edge="1">
          <mxGeometry width="50" height="50" relative="1" as="geometry">
            <mxPoint x="424.04096" y="597.00074" as="sourcePoint"/>
            <mxPoint x="430.05" y="630.04" as="targetPoint"/>
          </mxGeometry>
        </mxCell>
        <mxCell id="VviTeM2ibpvHN3L1Oc7k-3" value="" style="endArrow=none;html=1;strokeWidth=2;fontColor=#82B366;strokeColor=#FF0000;exitX=0.756;exitY=0.593;exitDx=0;exitDy=0;exitPerimeter=0;" parent="TswwbI3Oe9on1FsQc5qT-1" edge="1">
          <mxGeometry width="50" height="50" relative="1" as="geometry">
            <mxPoint x="409.99996000000004" y="608.0931299999999" as="sourcePoint"/>
            <mxPoint x="445.05" y="621.04" as="targetPoint"/>
          </mxGeometry>
        </mxCell>
        <mxCell id="uaqsgOcf41o4WhxSKCrT-0" value="No route found.&lt;br&gt;Have to start backtracking." style="text;html=1;strokeColor=none;fillColor=none;align=center;verticalAlign=middle;whiteSpace=wrap;rounded=0;" parent="TswwbI3Oe9on1FsQc5qT-1" vertex="1">
          <mxGeometry x="280" y="470" width="174.84" height="20" as="geometry"/>
        </mxCell>
        <mxCell id="uaqsgOcf41o4WhxSKCrT-1" style="edgeStyle=none;curved=1;orthogonalLoop=1;jettySize=auto;html=1;dashed=1;dashPattern=1 2;strokeWidth=1;fontColor=#82B366;entryX=0.714;entryY=0.543;entryDx=0;entryDy=0;entryPerimeter=0;" parent="TswwbI3Oe9on1FsQc5qT-1" source="uaqsgOcf41o4WhxSKCrT-0" target="TswwbI3Oe9on1FsQc5qT-9" edge="1">
          <mxGeometry relative="1" as="geometry">
            <mxPoint x="423.9842199999996" y="577.9745" as="targetPoint"/>
            <Array as="points">
              <mxPoint x="410" y="520"/>
            </Array>
          </mxGeometry>
        </mxCell>
        <mxCell id="gV2PpxswagB29YGR3lcj-10" value="Sampling point" style="text;html=1;strokeColor=none;fillColor=none;align=left;verticalAlign=middle;whiteSpace=wrap;rounded=0;" parent="TswwbI3Oe9on1FsQc5qT-1" vertex="1">
          <mxGeometry x="190.6300000000001" y="955" width="89.37" height="20" as="geometry"/>
        </mxCell>
        <mxCell id="gV2PpxswagB29YGR3lcj-13" value="" style="endArrow=none;html=1;strokeWidth=5;fillColor=#76608a;strokeColor=#82B366;" parent="TswwbI3Oe9on1FsQc5qT-1" edge="1">
          <mxGeometry width="50" height="50" relative="1" as="geometry">
            <mxPoint x="180" y="965" as="sourcePoint"/>
            <mxPoint x="180.4200000000119" y="965.21" as="targetPoint"/>
          </mxGeometry>
        </mxCell>
        <mxCell id="bq5bPDNo6U1Lche2vi4Q-1" value="" style="endArrow=classic;html=1;strokeWidth=5;strokeColor=#D79B00;rounded=0;" parent="TswwbI3Oe9on1FsQc5qT-1" target="TswwbI3Oe9on1FsQc5qT-29" edge="1">
          <mxGeometry width="50" height="50" relative="1" as="geometry">
            <mxPoint x="480" y="1050" as="sourcePoint"/>
            <mxPoint x="498.36799568402193" y="949.8324658380723" as="targetPoint"/>
          </mxGeometry>
        </mxCell>
        <mxCell id="1" value="" style="ellipse;whiteSpace=wrap;html=1;aspect=fixed;rotation=0;rounded=0;shadow=0;fontSize=24;align=right;strokeWidth=2;fillColor=none;strokeColor=#FF0000;" parent="TswwbI3Oe9on1FsQc5qT-1" vertex="1">
          <mxGeometry x="464.58000000000004" y="564.7900000000001" width="30" height="30" as="geometry"/>
        </mxCell>
      </root>
    </mxGraphModel>
  </diagram>
</mxfile>
